%TF.GenerationSoftware,KiCad,Pcbnew,6.0.4-6f826c9f35~116~ubuntu20.04.1*%
%TF.CreationDate,2022-04-12T14:10:10-05:00*%
%TF.ProjectId,propagation_delay_led_pulser,70726f70-6167-4617-9469-6f6e5f64656c,1.1*%
%TF.SameCoordinates,Original*%
%TF.FileFunction,Legend,Top*%
%TF.FilePolarity,Positive*%
%FSLAX46Y46*%
G04 Gerber Fmt 4.6, Leading zero omitted, Abs format (unit mm)*
G04 Created by KiCad (PCBNEW 6.0.4-6f826c9f35~116~ubuntu20.04.1) date 2022-04-12 14:10:10*
%MOMM*%
%LPD*%
G01*
G04 APERTURE LIST*
%ADD10C,0.150000*%
%ADD11C,0.120000*%
G04 APERTURE END LIST*
D10*
X223932369Y-60452366D02*
X224932369Y-60119032D01*
X223932369Y-59785699D01*
X224932369Y-58928556D02*
X224932369Y-59499985D01*
X224932369Y-59214270D02*
X223932369Y-59214270D01*
X224075227Y-59309509D01*
X224170465Y-59404747D01*
X224218084Y-59499985D01*
X224837131Y-58499985D02*
X224884750Y-58452366D01*
X224932369Y-58499985D01*
X224884750Y-58547604D01*
X224837131Y-58499985D01*
X224932369Y-58499985D01*
X224932369Y-57499985D02*
X224932369Y-58071413D01*
X224932369Y-57785699D02*
X223932369Y-57785699D01*
X224075227Y-57880937D01*
X224170465Y-57976175D01*
X224218084Y-58071413D01*
X225637608Y-67214270D02*
X225589989Y-67166651D01*
X225542369Y-67071413D01*
X225542369Y-66833318D01*
X225589989Y-66738080D01*
X225637608Y-66690461D01*
X225732846Y-66642842D01*
X225828084Y-66642842D01*
X225970941Y-66690461D01*
X226542369Y-67261889D01*
X226542369Y-66642842D01*
X225542369Y-66023794D02*
X225542369Y-65928556D01*
X225589989Y-65833318D01*
X225637608Y-65785699D01*
X225732846Y-65738080D01*
X225923322Y-65690461D01*
X226161417Y-65690461D01*
X226351893Y-65738080D01*
X226447131Y-65785699D01*
X226494750Y-65833318D01*
X226542369Y-65928556D01*
X226542369Y-66023794D01*
X226494750Y-66119032D01*
X226447131Y-66166651D01*
X226351893Y-66214270D01*
X226161417Y-66261889D01*
X225923322Y-66261889D01*
X225732846Y-66214270D01*
X225637608Y-66166651D01*
X225589989Y-66119032D01*
X225542369Y-66023794D01*
X225637608Y-65309509D02*
X225589989Y-65261889D01*
X225542369Y-65166651D01*
X225542369Y-64928556D01*
X225589989Y-64833318D01*
X225637608Y-64785699D01*
X225732846Y-64738080D01*
X225828084Y-64738080D01*
X225970941Y-64785699D01*
X226542369Y-65357128D01*
X226542369Y-64738080D01*
X225637608Y-64357128D02*
X225589989Y-64309509D01*
X225542369Y-64214270D01*
X225542369Y-63976175D01*
X225589989Y-63880937D01*
X225637608Y-63833318D01*
X225732846Y-63785699D01*
X225828084Y-63785699D01*
X225970941Y-63833318D01*
X226542369Y-64404747D01*
X226542369Y-63785699D01*
X226161417Y-63357128D02*
X226161417Y-62595223D01*
X225542369Y-61928556D02*
X225542369Y-61833318D01*
X225589989Y-61738080D01*
X225637608Y-61690461D01*
X225732846Y-61642842D01*
X225923322Y-61595223D01*
X226161417Y-61595223D01*
X226351893Y-61642842D01*
X226447131Y-61690461D01*
X226494750Y-61738080D01*
X226542369Y-61833318D01*
X226542369Y-61928556D01*
X226494750Y-62023794D01*
X226447131Y-62071413D01*
X226351893Y-62119032D01*
X226161417Y-62166651D01*
X225923322Y-62166651D01*
X225732846Y-62119032D01*
X225637608Y-62071413D01*
X225589989Y-62023794D01*
X225542369Y-61928556D01*
X225875703Y-60738080D02*
X226542369Y-60738080D01*
X225494750Y-60976175D02*
X226209036Y-61214270D01*
X226209036Y-60595223D01*
X226161417Y-60214270D02*
X226161417Y-59452366D01*
X226542369Y-58452366D02*
X226542369Y-59023794D01*
X226542369Y-58738080D02*
X225542369Y-58738080D01*
X225685227Y-58833318D01*
X225780465Y-58928556D01*
X225828084Y-59023794D01*
X225637608Y-58071413D02*
X225589989Y-58023794D01*
X225542369Y-57928556D01*
X225542369Y-57690461D01*
X225589989Y-57595223D01*
X225637608Y-57547604D01*
X225732846Y-57499985D01*
X225828084Y-57499985D01*
X225970941Y-57547604D01*
X226542369Y-58119032D01*
X226542369Y-57499985D01*
X205643322Y-91029394D02*
X205643322Y-90029394D01*
X206024274Y-90029394D01*
X206119512Y-90077014D01*
X206167131Y-90124633D01*
X206214750Y-90219871D01*
X206214750Y-90362728D01*
X206167131Y-90457966D01*
X206119512Y-90505585D01*
X206024274Y-90553204D01*
X205643322Y-90553204D01*
X206643322Y-91029394D02*
X206643322Y-90362728D01*
X206643322Y-90553204D02*
X206690941Y-90457966D01*
X206738560Y-90410347D01*
X206833798Y-90362728D01*
X206929036Y-90362728D01*
X207405227Y-91029394D02*
X207309989Y-90981775D01*
X207262369Y-90934156D01*
X207214750Y-90838918D01*
X207214750Y-90553204D01*
X207262369Y-90457966D01*
X207309989Y-90410347D01*
X207405227Y-90362728D01*
X207548084Y-90362728D01*
X207643322Y-90410347D01*
X207690941Y-90457966D01*
X207738560Y-90553204D01*
X207738560Y-90838918D01*
X207690941Y-90934156D01*
X207643322Y-90981775D01*
X207548084Y-91029394D01*
X207405227Y-91029394D01*
X208167131Y-90362728D02*
X208167131Y-91362728D01*
X208167131Y-90410347D02*
X208262369Y-90362728D01*
X208452846Y-90362728D01*
X208548084Y-90410347D01*
X208595703Y-90457966D01*
X208643322Y-90553204D01*
X208643322Y-90838918D01*
X208595703Y-90934156D01*
X208548084Y-90981775D01*
X208452846Y-91029394D01*
X208262369Y-91029394D01*
X208167131Y-90981775D01*
X209500465Y-91029394D02*
X209500465Y-90505585D01*
X209452846Y-90410347D01*
X209357608Y-90362728D01*
X209167131Y-90362728D01*
X209071893Y-90410347D01*
X209500465Y-90981775D02*
X209405227Y-91029394D01*
X209167131Y-91029394D01*
X209071893Y-90981775D01*
X209024274Y-90886537D01*
X209024274Y-90791299D01*
X209071893Y-90696061D01*
X209167131Y-90648442D01*
X209405227Y-90648442D01*
X209500465Y-90600823D01*
X210405227Y-90362728D02*
X210405227Y-91172252D01*
X210357608Y-91267490D01*
X210309989Y-91315109D01*
X210214750Y-91362728D01*
X210071893Y-91362728D01*
X209976655Y-91315109D01*
X210405227Y-90981775D02*
X210309989Y-91029394D01*
X210119512Y-91029394D01*
X210024274Y-90981775D01*
X209976655Y-90934156D01*
X209929036Y-90838918D01*
X209929036Y-90553204D01*
X209976655Y-90457966D01*
X210024274Y-90410347D01*
X210119512Y-90362728D01*
X210309989Y-90362728D01*
X210405227Y-90410347D01*
X211309989Y-91029394D02*
X211309989Y-90505585D01*
X211262369Y-90410347D01*
X211167131Y-90362728D01*
X210976655Y-90362728D01*
X210881417Y-90410347D01*
X211309989Y-90981775D02*
X211214750Y-91029394D01*
X210976655Y-91029394D01*
X210881417Y-90981775D01*
X210833798Y-90886537D01*
X210833798Y-90791299D01*
X210881417Y-90696061D01*
X210976655Y-90648442D01*
X211214750Y-90648442D01*
X211309989Y-90600823D01*
X211643322Y-90362728D02*
X212024274Y-90362728D01*
X211786179Y-90029394D02*
X211786179Y-90886537D01*
X211833798Y-90981775D01*
X211929036Y-91029394D01*
X212024274Y-91029394D01*
X212357608Y-91029394D02*
X212357608Y-90362728D01*
X212357608Y-90029394D02*
X212309989Y-90077014D01*
X212357608Y-90124633D01*
X212405227Y-90077014D01*
X212357608Y-90029394D01*
X212357608Y-90124633D01*
X212976655Y-91029394D02*
X212881417Y-90981775D01*
X212833798Y-90934156D01*
X212786179Y-90838918D01*
X212786179Y-90553204D01*
X212833798Y-90457966D01*
X212881417Y-90410347D01*
X212976655Y-90362728D01*
X213119512Y-90362728D01*
X213214750Y-90410347D01*
X213262369Y-90457966D01*
X213309989Y-90553204D01*
X213309989Y-90838918D01*
X213262369Y-90934156D01*
X213214750Y-90981775D01*
X213119512Y-91029394D01*
X212976655Y-91029394D01*
X213738560Y-90362728D02*
X213738560Y-91029394D01*
X213738560Y-90457966D02*
X213786179Y-90410347D01*
X213881417Y-90362728D01*
X214024274Y-90362728D01*
X214119512Y-90410347D01*
X214167131Y-90505585D01*
X214167131Y-91029394D01*
X215405227Y-91029394D02*
X215405227Y-90029394D01*
X215643322Y-90029394D01*
X215786179Y-90077014D01*
X215881417Y-90172252D01*
X215929036Y-90267490D01*
X215976655Y-90457966D01*
X215976655Y-90600823D01*
X215929036Y-90791299D01*
X215881417Y-90886537D01*
X215786179Y-90981775D01*
X215643322Y-91029394D01*
X215405227Y-91029394D01*
X216786179Y-90981775D02*
X216690941Y-91029394D01*
X216500465Y-91029394D01*
X216405227Y-90981775D01*
X216357608Y-90886537D01*
X216357608Y-90505585D01*
X216405227Y-90410347D01*
X216500465Y-90362728D01*
X216690941Y-90362728D01*
X216786179Y-90410347D01*
X216833798Y-90505585D01*
X216833798Y-90600823D01*
X216357608Y-90696061D01*
X217405227Y-91029394D02*
X217309989Y-90981775D01*
X217262369Y-90886537D01*
X217262369Y-90029394D01*
X218214750Y-91029394D02*
X218214750Y-90505585D01*
X218167131Y-90410347D01*
X218071893Y-90362728D01*
X217881417Y-90362728D01*
X217786179Y-90410347D01*
X218214750Y-90981775D02*
X218119512Y-91029394D01*
X217881417Y-91029394D01*
X217786179Y-90981775D01*
X217738560Y-90886537D01*
X217738560Y-90791299D01*
X217786179Y-90696061D01*
X217881417Y-90648442D01*
X218119512Y-90648442D01*
X218214750Y-90600823D01*
X218595703Y-90362728D02*
X218833798Y-91029394D01*
X219071893Y-90362728D02*
X218833798Y-91029394D01*
X218738560Y-91267490D01*
X218690941Y-91315109D01*
X218595703Y-91362728D01*
X208929036Y-92639394D02*
X208452846Y-92639394D01*
X208452846Y-91639394D01*
X209262369Y-92115585D02*
X209595703Y-92115585D01*
X209738560Y-92639394D02*
X209262369Y-92639394D01*
X209262369Y-91639394D01*
X209738560Y-91639394D01*
X210167131Y-92639394D02*
X210167131Y-91639394D01*
X210405227Y-91639394D01*
X210548084Y-91687014D01*
X210643322Y-91782252D01*
X210690941Y-91877490D01*
X210738560Y-92067966D01*
X210738560Y-92210823D01*
X210690941Y-92401299D01*
X210643322Y-92496537D01*
X210548084Y-92591775D01*
X210405227Y-92639394D01*
X210167131Y-92639394D01*
X211929036Y-92639394D02*
X211929036Y-91639394D01*
X212309989Y-91639394D01*
X212405227Y-91687014D01*
X212452846Y-91734633D01*
X212500465Y-91829871D01*
X212500465Y-91972728D01*
X212452846Y-92067966D01*
X212405227Y-92115585D01*
X212309989Y-92163204D01*
X211929036Y-92163204D01*
X213357608Y-91972728D02*
X213357608Y-92639394D01*
X212929036Y-91972728D02*
X212929036Y-92496537D01*
X212976655Y-92591775D01*
X213071893Y-92639394D01*
X213214750Y-92639394D01*
X213309989Y-92591775D01*
X213357608Y-92544156D01*
X213976655Y-92639394D02*
X213881417Y-92591775D01*
X213833798Y-92496537D01*
X213833798Y-91639394D01*
X214309989Y-92591775D02*
X214405227Y-92639394D01*
X214595703Y-92639394D01*
X214690941Y-92591775D01*
X214738560Y-92496537D01*
X214738560Y-92448918D01*
X214690941Y-92353680D01*
X214595703Y-92306061D01*
X214452846Y-92306061D01*
X214357608Y-92258442D01*
X214309989Y-92163204D01*
X214309989Y-92115585D01*
X214357608Y-92020347D01*
X214452846Y-91972728D01*
X214595703Y-91972728D01*
X214690941Y-92020347D01*
X215548084Y-92591775D02*
X215452846Y-92639394D01*
X215262369Y-92639394D01*
X215167131Y-92591775D01*
X215119512Y-92496537D01*
X215119512Y-92115585D01*
X215167131Y-92020347D01*
X215262369Y-91972728D01*
X215452846Y-91972728D01*
X215548084Y-92020347D01*
X215595703Y-92115585D01*
X215595703Y-92210823D01*
X215119512Y-92306061D01*
X216024274Y-92639394D02*
X216024274Y-91972728D01*
X216024274Y-92163204D02*
X216071893Y-92067966D01*
X216119512Y-92020347D01*
X216214750Y-91972728D01*
X216309989Y-91972728D01*
X208500465Y-94249394D02*
X208500465Y-93249394D01*
X208500465Y-93725585D02*
X209071893Y-93725585D01*
X209071893Y-94249394D02*
X209071893Y-93249394D01*
X209976655Y-93582728D02*
X209976655Y-94249394D01*
X209548084Y-93582728D02*
X209548084Y-94106537D01*
X209595703Y-94201775D01*
X209690941Y-94249394D01*
X209833798Y-94249394D01*
X209929036Y-94201775D01*
X209976655Y-94154156D01*
X210881417Y-93582728D02*
X210881417Y-94392252D01*
X210833798Y-94487490D01*
X210786179Y-94535109D01*
X210690941Y-94582728D01*
X210548084Y-94582728D01*
X210452846Y-94535109D01*
X210881417Y-94201775D02*
X210786179Y-94249394D01*
X210595703Y-94249394D01*
X210500465Y-94201775D01*
X210452846Y-94154156D01*
X210405227Y-94058918D01*
X210405227Y-93773204D01*
X210452846Y-93677966D01*
X210500465Y-93630347D01*
X210595703Y-93582728D01*
X210786179Y-93582728D01*
X210881417Y-93630347D01*
X211500465Y-94249394D02*
X211405227Y-94201775D01*
X211357608Y-94154156D01*
X211309989Y-94058918D01*
X211309989Y-93773204D01*
X211357608Y-93677966D01*
X211405227Y-93630347D01*
X211500465Y-93582728D01*
X211643322Y-93582728D01*
X211738560Y-93630347D01*
X211786179Y-93677966D01*
X211833798Y-93773204D01*
X211833798Y-94058918D01*
X211786179Y-94154156D01*
X211738560Y-94201775D01*
X211643322Y-94249394D01*
X211500465Y-94249394D01*
X212262369Y-93582728D02*
X212262369Y-94249394D01*
X212262369Y-93677966D02*
X212309989Y-93630347D01*
X212405227Y-93582728D01*
X212548084Y-93582728D01*
X212643322Y-93630347D01*
X212690941Y-93725585D01*
X212690941Y-94249394D01*
X213643322Y-94249394D02*
X213167131Y-94249394D01*
X213167131Y-93249394D01*
X214405227Y-94249394D02*
X214405227Y-93725585D01*
X214357608Y-93630347D01*
X214262369Y-93582728D01*
X214071893Y-93582728D01*
X213976655Y-93630347D01*
X214405227Y-94201775D02*
X214309989Y-94249394D01*
X214071893Y-94249394D01*
X213976655Y-94201775D01*
X213929036Y-94106537D01*
X213929036Y-94011299D01*
X213976655Y-93916061D01*
X214071893Y-93868442D01*
X214309989Y-93868442D01*
X214405227Y-93820823D01*
X214881417Y-94249394D02*
X214881417Y-93249394D01*
X214881417Y-93630347D02*
X214976655Y-93582728D01*
X215167131Y-93582728D01*
X215262369Y-93630347D01*
X215309989Y-93677966D01*
X215357608Y-93773204D01*
X215357608Y-94058918D01*
X215309989Y-94154156D01*
X215262369Y-94201775D01*
X215167131Y-94249394D01*
X214976655Y-94249394D01*
X214881417Y-94201775D01*
X215738560Y-94201775D02*
X215833798Y-94249394D01*
X216024274Y-94249394D01*
X216119512Y-94201775D01*
X216167131Y-94106537D01*
X216167131Y-94058918D01*
X216119512Y-93963680D01*
X216024274Y-93916061D01*
X215881417Y-93916061D01*
X215786179Y-93868442D01*
X215738560Y-93773204D01*
X215738560Y-93725585D01*
X215786179Y-93630347D01*
X215881417Y-93582728D01*
X216024274Y-93582728D01*
X216119512Y-93630347D01*
%TO.C,C6*%
X206405822Y-53919151D02*
X206358203Y-53966770D01*
X206215346Y-54014389D01*
X206120108Y-54014389D01*
X205977250Y-53966770D01*
X205882012Y-53871532D01*
X205834393Y-53776294D01*
X205786774Y-53585818D01*
X205786774Y-53442961D01*
X205834393Y-53252485D01*
X205882012Y-53157247D01*
X205977250Y-53062009D01*
X206120108Y-53014389D01*
X206215346Y-53014389D01*
X206358203Y-53062009D01*
X206405822Y-53109628D01*
X207262965Y-53014389D02*
X207072489Y-53014389D01*
X206977250Y-53062009D01*
X206929631Y-53109628D01*
X206834393Y-53252485D01*
X206786774Y-53442961D01*
X206786774Y-53823913D01*
X206834393Y-53919151D01*
X206882012Y-53966770D01*
X206977250Y-54014389D01*
X207167727Y-54014389D01*
X207262965Y-53966770D01*
X207310584Y-53919151D01*
X207358203Y-53823913D01*
X207358203Y-53585818D01*
X207310584Y-53490580D01*
X207262965Y-53442961D01*
X207167727Y-53395342D01*
X206977250Y-53395342D01*
X206882012Y-53442961D01*
X206834393Y-53490580D01*
X206786774Y-53585818D01*
%TO.C,C5*%
X216543322Y-80894151D02*
X216495703Y-80941770D01*
X216352846Y-80989389D01*
X216257608Y-80989389D01*
X216114750Y-80941770D01*
X216019512Y-80846532D01*
X215971893Y-80751294D01*
X215924274Y-80560818D01*
X215924274Y-80417961D01*
X215971893Y-80227485D01*
X216019512Y-80132247D01*
X216114750Y-80037009D01*
X216257608Y-79989389D01*
X216352846Y-79989389D01*
X216495703Y-80037009D01*
X216543322Y-80084628D01*
X217448084Y-79989389D02*
X216971893Y-79989389D01*
X216924274Y-80465580D01*
X216971893Y-80417961D01*
X217067131Y-80370342D01*
X217305227Y-80370342D01*
X217400465Y-80417961D01*
X217448084Y-80465580D01*
X217495703Y-80560818D01*
X217495703Y-80798913D01*
X217448084Y-80894151D01*
X217400465Y-80941770D01*
X217305227Y-80989389D01*
X217067131Y-80989389D01*
X216971893Y-80941770D01*
X216924274Y-80894151D01*
%TO.C,C4*%
X210568322Y-69619151D02*
X210520703Y-69666770D01*
X210377846Y-69714389D01*
X210282608Y-69714389D01*
X210139750Y-69666770D01*
X210044512Y-69571532D01*
X209996893Y-69476294D01*
X209949274Y-69285818D01*
X209949274Y-69142961D01*
X209996893Y-68952485D01*
X210044512Y-68857247D01*
X210139750Y-68762009D01*
X210282608Y-68714389D01*
X210377846Y-68714389D01*
X210520703Y-68762009D01*
X210568322Y-68809628D01*
X211425465Y-69047723D02*
X211425465Y-69714389D01*
X211187369Y-68666770D02*
X210949274Y-69381056D01*
X211568322Y-69381056D01*
%TO.C,C3*%
X208618322Y-66069151D02*
X208570703Y-66116770D01*
X208427846Y-66164389D01*
X208332608Y-66164389D01*
X208189750Y-66116770D01*
X208094512Y-66021532D01*
X208046893Y-65926294D01*
X207999274Y-65735818D01*
X207999274Y-65592961D01*
X208046893Y-65402485D01*
X208094512Y-65307247D01*
X208189750Y-65212009D01*
X208332608Y-65164389D01*
X208427846Y-65164389D01*
X208570703Y-65212009D01*
X208618322Y-65259628D01*
X208951655Y-65164389D02*
X209570703Y-65164389D01*
X209237369Y-65545342D01*
X209380227Y-65545342D01*
X209475465Y-65592961D01*
X209523084Y-65640580D01*
X209570703Y-65735818D01*
X209570703Y-65973913D01*
X209523084Y-66069151D01*
X209475465Y-66116770D01*
X209380227Y-66164389D01*
X209094512Y-66164389D01*
X208999274Y-66116770D01*
X208951655Y-66069151D01*
%TO.C,C1*%
X216834142Y-84970666D02*
X216881761Y-85018285D01*
X216929380Y-85161142D01*
X216929380Y-85256380D01*
X216881761Y-85399238D01*
X216786523Y-85494476D01*
X216691285Y-85542095D01*
X216500809Y-85589714D01*
X216357952Y-85589714D01*
X216167476Y-85542095D01*
X216072238Y-85494476D01*
X215977000Y-85399238D01*
X215929380Y-85256380D01*
X215929380Y-85161142D01*
X215977000Y-85018285D01*
X216024619Y-84970666D01*
X216929380Y-84018285D02*
X216929380Y-84589714D01*
X216929380Y-84304000D02*
X215929380Y-84304000D01*
X216072238Y-84399238D01*
X216167476Y-84494476D01*
X216215095Y-84589714D01*
%TO.C,U3*%
X211648084Y-75864389D02*
X211648084Y-76673913D01*
X211695703Y-76769151D01*
X211743322Y-76816770D01*
X211838560Y-76864389D01*
X212029036Y-76864389D01*
X212124274Y-76816770D01*
X212171893Y-76769151D01*
X212219512Y-76673913D01*
X212219512Y-75864389D01*
X212600465Y-75864389D02*
X213219512Y-75864389D01*
X212886179Y-76245342D01*
X213029036Y-76245342D01*
X213124274Y-76292961D01*
X213171893Y-76340580D01*
X213219512Y-76435818D01*
X213219512Y-76673913D01*
X213171893Y-76769151D01*
X213124274Y-76816770D01*
X213029036Y-76864389D01*
X212743322Y-76864389D01*
X212648084Y-76816770D01*
X212600465Y-76769151D01*
%TO.C,C2*%
X222218322Y-84369151D02*
X222170703Y-84416770D01*
X222027846Y-84464389D01*
X221932608Y-84464389D01*
X221789750Y-84416770D01*
X221694512Y-84321532D01*
X221646893Y-84226294D01*
X221599274Y-84035818D01*
X221599274Y-83892961D01*
X221646893Y-83702485D01*
X221694512Y-83607247D01*
X221789750Y-83512009D01*
X221932608Y-83464389D01*
X222027846Y-83464389D01*
X222170703Y-83512009D01*
X222218322Y-83559628D01*
X222599274Y-83559628D02*
X222646893Y-83512009D01*
X222742131Y-83464389D01*
X222980227Y-83464389D01*
X223075465Y-83512009D01*
X223123084Y-83559628D01*
X223170703Y-83654866D01*
X223170703Y-83750104D01*
X223123084Y-83892961D01*
X222551655Y-84464389D01*
X223170703Y-84464389D01*
%TO.C,U2*%
X221923084Y-69289389D02*
X221923084Y-70098913D01*
X221970703Y-70194151D01*
X222018322Y-70241770D01*
X222113560Y-70289389D01*
X222304036Y-70289389D01*
X222399274Y-70241770D01*
X222446893Y-70194151D01*
X222494512Y-70098913D01*
X222494512Y-69289389D01*
X222923084Y-69384628D02*
X222970703Y-69337009D01*
X223065941Y-69289389D01*
X223304036Y-69289389D01*
X223399274Y-69337009D01*
X223446893Y-69384628D01*
X223494512Y-69479866D01*
X223494512Y-69575104D01*
X223446893Y-69717961D01*
X222875465Y-70289389D01*
X223494512Y-70289389D01*
%TO.C,R2*%
X206993322Y-58739389D02*
X206659989Y-58263199D01*
X206421893Y-58739389D02*
X206421893Y-57739389D01*
X206802846Y-57739389D01*
X206898084Y-57787009D01*
X206945703Y-57834628D01*
X206993322Y-57929866D01*
X206993322Y-58072723D01*
X206945703Y-58167961D01*
X206898084Y-58215580D01*
X206802846Y-58263199D01*
X206421893Y-58263199D01*
X207374274Y-57834628D02*
X207421893Y-57787009D01*
X207517131Y-57739389D01*
X207755227Y-57739389D01*
X207850465Y-57787009D01*
X207898084Y-57834628D01*
X207945703Y-57929866D01*
X207945703Y-58025104D01*
X207898084Y-58167961D01*
X207326655Y-58739389D01*
X207945703Y-58739389D01*
%TO.C,J1*%
X205051655Y-87739389D02*
X205051655Y-88453675D01*
X205004036Y-88596532D01*
X204908798Y-88691770D01*
X204765941Y-88739389D01*
X204670703Y-88739389D01*
X206051655Y-88739389D02*
X205480227Y-88739389D01*
X205765941Y-88739389D02*
X205765941Y-87739389D01*
X205670703Y-87882247D01*
X205575465Y-87977485D01*
X205480227Y-88025104D01*
%TO.C,R1*%
X225218322Y-84314389D02*
X224884989Y-83838199D01*
X224646893Y-84314389D02*
X224646893Y-83314389D01*
X225027846Y-83314389D01*
X225123084Y-83362009D01*
X225170703Y-83409628D01*
X225218322Y-83504866D01*
X225218322Y-83647723D01*
X225170703Y-83742961D01*
X225123084Y-83790580D01*
X225027846Y-83838199D01*
X224646893Y-83838199D01*
X226170703Y-84314389D02*
X225599274Y-84314389D01*
X225884989Y-84314389D02*
X225884989Y-83314389D01*
X225789750Y-83457247D01*
X225694512Y-83552485D01*
X225599274Y-83600104D01*
%TO.C,U1*%
X221398084Y-61264389D02*
X221398084Y-62073913D01*
X221445703Y-62169151D01*
X221493322Y-62216770D01*
X221588560Y-62264389D01*
X221779036Y-62264389D01*
X221874274Y-62216770D01*
X221921893Y-62169151D01*
X221969512Y-62073913D01*
X221969512Y-61264389D01*
X222969512Y-62264389D02*
X222398084Y-62264389D01*
X222683798Y-62264389D02*
X222683798Y-61264389D01*
X222588560Y-61407247D01*
X222493322Y-61502485D01*
X222398084Y-61550104D01*
%TO.C,D1*%
X211771893Y-54064389D02*
X211771893Y-53064389D01*
X212009989Y-53064389D01*
X212152846Y-53112009D01*
X212248084Y-53207247D01*
X212295703Y-53302485D01*
X212343322Y-53492961D01*
X212343322Y-53635818D01*
X212295703Y-53826294D01*
X212248084Y-53921532D01*
X212152846Y-54016770D01*
X212009989Y-54064389D01*
X211771893Y-54064389D01*
X213295703Y-54064389D02*
X212724274Y-54064389D01*
X213009989Y-54064389D02*
X213009989Y-53064389D01*
X212914750Y-53207247D01*
X212819512Y-53302485D01*
X212724274Y-53350104D01*
%TO.C,R3*%
X218418322Y-54114389D02*
X218084989Y-53638199D01*
X217846893Y-54114389D02*
X217846893Y-53114389D01*
X218227846Y-53114389D01*
X218323084Y-53162009D01*
X218370703Y-53209628D01*
X218418322Y-53304866D01*
X218418322Y-53447723D01*
X218370703Y-53542961D01*
X218323084Y-53590580D01*
X218227846Y-53638199D01*
X217846893Y-53638199D01*
X218751655Y-53114389D02*
X219370703Y-53114389D01*
X219037369Y-53495342D01*
X219180227Y-53495342D01*
X219275465Y-53542961D01*
X219323084Y-53590580D01*
X219370703Y-53685818D01*
X219370703Y-53923913D01*
X219323084Y-54019151D01*
X219275465Y-54066770D01*
X219180227Y-54114389D01*
X218894512Y-54114389D01*
X218799274Y-54066770D01*
X218751655Y-54019151D01*
%TO.C,J2*%
X199251655Y-67114389D02*
X199251655Y-67828675D01*
X199204036Y-67971532D01*
X199108798Y-68066770D01*
X198965941Y-68114389D01*
X198870703Y-68114389D01*
X199680227Y-67209628D02*
X199727846Y-67162009D01*
X199823084Y-67114389D01*
X200061179Y-67114389D01*
X200156417Y-67162009D01*
X200204036Y-67209628D01*
X200251655Y-67304866D01*
X200251655Y-67400104D01*
X200204036Y-67542961D01*
X199632608Y-68114389D01*
X200251655Y-68114389D01*
D11*
%TO.C,C6*%
X207283741Y-50802009D02*
X205861237Y-50802009D01*
X207283741Y-52622009D02*
X205861237Y-52622009D01*
%TO.C,C5*%
X218121252Y-77802000D02*
X216698748Y-77802000D01*
X218121252Y-79622000D02*
X216698748Y-79622000D01*
%TO.C,C4*%
X213673737Y-70747009D02*
X215096241Y-70747009D01*
X213673737Y-68927009D02*
X215096241Y-68927009D01*
%TO.C,C3*%
X209496241Y-62952009D02*
X208073737Y-62952009D01*
X209496241Y-64772009D02*
X208073737Y-64772009D01*
%TO.C,C1*%
X213717000Y-84092748D02*
X213717000Y-85515252D01*
X215537000Y-84092748D02*
X215537000Y-85515252D01*
%TO.C,U3*%
X213409989Y-72202009D02*
X210959989Y-72202009D01*
X211609989Y-75422009D02*
X213409989Y-75422009D01*
%TO.C,C2*%
X221336989Y-79650757D02*
X221336989Y-81073261D01*
X223156989Y-79650757D02*
X223156989Y-81073261D01*
%TO.C,U2*%
X222409989Y-71152009D02*
X220459989Y-71152009D01*
X222409989Y-76272009D02*
X225859989Y-76272009D01*
X222409989Y-71152009D02*
X224359989Y-71152009D01*
X222409989Y-76272009D02*
X220459989Y-76272009D01*
%TO.C,R2*%
X207987053Y-60972009D02*
X206532925Y-60972009D01*
X207987053Y-59152009D02*
X206532925Y-59152009D01*
%TO.C,J1*%
X206440000Y-85642000D02*
X207140000Y-85642000D01*
X206440000Y-83142000D02*
X207140000Y-83142000D01*
X211050000Y-87026264D02*
X210750000Y-86602000D01*
X206440000Y-82842000D02*
X206440000Y-83142000D01*
X197760000Y-81162000D02*
X197760000Y-87322000D01*
X210450000Y-87026264D02*
X211050000Y-87026264D01*
X207140000Y-85642000D02*
X207140000Y-85342000D01*
X207140000Y-82842000D02*
X206440000Y-82842000D01*
X206440000Y-81162000D02*
X197760000Y-81162000D01*
X206440000Y-85342000D02*
X206440000Y-85642000D01*
X207140000Y-85342000D02*
X206440000Y-85342000D01*
X206440000Y-87322000D02*
X206440000Y-81162000D01*
X197760000Y-87322000D02*
X206440000Y-87322000D01*
X210750000Y-86602000D02*
X210450000Y-87026264D01*
X207140000Y-83142000D02*
X207140000Y-82842000D01*
%TO.C,R1*%
X224499989Y-79634945D02*
X224499989Y-81089073D01*
X226319989Y-79634945D02*
X226319989Y-81089073D01*
%TO.C,U1*%
X220844989Y-63712009D02*
X220844989Y-65662009D01*
X211974989Y-63712009D02*
X211974989Y-67162009D01*
X220844989Y-63712009D02*
X220844989Y-61762009D01*
X211974989Y-63712009D02*
X211974989Y-61762009D01*
%TO.C,D1*%
X210064489Y-50577009D02*
X210064489Y-52847009D01*
X214124489Y-50577009D02*
X210064489Y-50577009D01*
X210064489Y-52847009D02*
X214124489Y-52847009D01*
%TO.C,R3*%
X219337053Y-52622009D02*
X217882925Y-52622009D01*
X219337053Y-50802009D02*
X217882925Y-50802009D01*
%TO.C,J2*%
X202669989Y-61112009D02*
X203169989Y-61362009D01*
X203169989Y-61362009D02*
X203169989Y-60862009D01*
X203169989Y-60862009D02*
X202669989Y-61112009D01*
%TD*%
M02*
