M48
; DRILL file {KiCad 6.0.2-378541a8eb~116~ubuntu20.04.1} date Mon 28 Feb 2022 02:08:02 PM CST
; FORMAT={-:-/ absolute / inch / decimal}
; #@! TF.CreationDate,2022-02-28T14:08:02-06:00
; #@! TF.GenerationSoftware,Kicad,Pcbnew,6.0.2-378541a8eb~116~ubuntu20.04.1
; #@! TF.FileFunction,MixedPlating,1,2
FMAT,2
INCH
; #@! TA.AperFunction,Plated,PTH,ViaDrill
T1C0.0100
; #@! TA.AperFunction,Plated,PTH,ComponentDrill
T2C0.0472
; #@! TA.AperFunction,NonPlated,NPTH,ComponentDrill
T3C0.0669
%
G90
G05
T1
X7.8508Y-2.282
X7.8508Y-2.6166
X7.9591Y-2.5772
X7.9787Y-2.2918
X8.0688Y-2.0669
X8.1461Y-2.5772
X8.1771Y-2.5492
X8.212Y-2.59
X8.274Y-2.8233
X8.3134Y-2.9611
X8.3528Y-2.9414
X8.3921Y-2.7347
X8.3921Y-2.8233
X8.4096Y-3.3998
X8.4502Y-3.4306
X8.461Y-2.7052
X8.4906Y-3.0989
X8.4915Y-3.3991
X8.5265Y-3.0282
X8.527Y-3.1737
X8.5398Y-2.7347
X8.6677Y-2.656
X8.6701Y-2.5633
X8.685Y-2.6058
X8.7071Y-3.2278
X8.7504Y-3.2593
X8.7945Y-3.2254
X8.8006Y-2.9769
X8.8537Y-3.0015
T2
X8.1988Y-3.2674
X8.1988Y-3.3658
X8.2972Y-3.2674
X8.2972Y-3.3658
T3
X7.9161Y-3.2674
X7.9161Y-3.3658
T0
M30
